<svg width="231" height="60" xmlns="http://www.w3.org/2000/svg" fill="none">
 <g>
  <title>Layer 1</title>
  <g fill="#465FFF" id="svg_8" stroke="null">
   <g data-name="Layer 1" id="svg_9" stroke="null">
    <g id="svg_10" stroke="null">
     <g id="svg_11" stroke="null">
      <path fill="#ffffff" d="m57.66409,13.9782l-20.08739,0l0,10.14994l23.576,0l4.3515,10.23382l-27.9275,0l0,11.65053l30.53468,0l4.3515,10.23382l-46.9479,0l0,-52.49261l27.79761,0l4.3515,10.23382l0,-0.00932l0,0.00001l0,-0.00001z" class="cls-1" id="svg_12" stroke="null"/>
      <path fill="#ffffff" d="m81.14731,3.75369l13.24004,33.60944l13.24004,-33.60944l13.00809,0l-22.17499,52.49261l-8.14629,0l-22.16571,-52.49261l13.00809,0l-0.00928,0l0.00001,0z" class="cls-1" id="svg_13" stroke="null"/>
      <path fill="#ffffff" d="m172.1854,10.20342c4.93603,4.80002 8.14629,11.72509 8.14629,19.83385c0,7.00896 -2.50512,14.16704 -8.14629,19.67541c-4.8618,4.72545 -11.44007,7.7173 -20.21729,7.7173c-9.78855,0 -16.45032,-3.93322 -20.36574,-7.7173c-5.01024,-4.72545 -8.14629,-11.80898 -8.14629,-19.51697s3.368,-15.19229 8.07207,-19.90842c3.52574,-3.54176 10.02978,-7.7173 20.44924,-7.7173c8.14629,0 14.9658,2.51651 20.21729,7.63342l-0.00928,0l0,0.00001zm-31.73159,8.02488c-2.27317,2.19962 -4.62057,6.05827 -4.62057,11.88354c0,4.80002 1.56802,8.65867 4.77829,11.80898c3.368,3.22486 7.12569,4.32468 11.19884,4.32468c5.32571,0 9.08339,-1.96661 11.5978,-4.48312c2.04122,-1.96661 4.54634,-5.66681 4.54634,-11.72509c0,-5.43381 -2.18966,-9.44159 -4.54634,-11.80898c-2.58863,-2.51651 -6.736,-4.48312 -11.5143,-4.48312s-8.61949,1.64971 -11.44007,4.48312l0,-0.00001l0.00001,0z" class="cls-1" id="svg_14" stroke="null"/>
     </g>
     <g id="svg_15" stroke="null">
      <path fill="#ffffff" d="m205.47572,53.43154l0,2.87069l-13.41633,0l0,-2.87069l1.05772,0c-1.21545,-0.94136 -1.35463,-2.0971 -1.35463,-2.77749c0,-1.59379 0.69587,-2.6004 1.25257,-3.1503c0.79793,-0.80156 2.0041,-1.34214 3.46079,-1.34214c1.5309,0 2.68141,0.54059 3.55357,1.41671s1.19689,1.83612 1.19689,3.01049c0,1.7802 -0.89071,2.53515 -1.30823,2.83341l5.56694,0l-0.00928,0.00932l-0.00001,0zm-10.59575,-0.47534c0.45464,0.4567 1.09483,0.68039 1.63297,0.68039s1.13194,-0.22369 1.56802,-0.6431c0.41752,-0.41942 0.67731,-1.01593 0.67731,-1.64039c0,-0.54059 -0.22267,-1.11845 -0.61236,-1.53787c-0.43607,-0.4567 -1.11339,-0.69903 -1.68864,-0.69903c-0.65876,0 -1.234,0.27961 -1.61441,0.68039c-0.39896,0.41942 -0.61236,0.97864 -0.61236,1.55651c0,0.80156 0.38041,1.31418 0.65876,1.59379l-0.00928,0.00932l-0.00001,0l0,-0.00001z" class="cls-1" id="svg_16" stroke="null"/>
      <path fill="#ffffff" d="m192.05939,44.36277l0,-2.87069l1.39174,0c-0.50102,-0.26097 -0.95566,-0.66175 -1.234,-1.11845c-0.2969,-0.47534 -0.38041,-0.97864 -0.38041,-1.53787c0,-0.36349 0.03711,-0.61515 0.13917,-0.94136l2.68141,0.15844c-0.19484,0.38214 -0.31546,0.80156 -0.31546,1.29554c0,0.61515 0.22267,1.08117 0.59381,1.43534c0.67731,0.6431 1.63297,0.69903 2.38451,0.69903l3.59995,0l0,2.87069l-8.86072,0l0,0.00932l0,0.00001z" class="cls-1" id="svg_17" stroke="null"/>
      <path fill="#ffffff" d="m199.78816,28.313c0.79793,0.80156 1.42884,2.15302 1.42884,3.89593s-0.64019,3.09437 -1.42884,3.89593c-0.89071,0.89476 -2.17111,1.34214 -3.30305,1.34214s-2.40306,-0.43805 -3.30305,-1.34214c-0.79793,-0.80156 -1.42884,-2.15302 -1.42884,-3.89593s0.64019,-3.09437 1.42884,-3.89593c0.89071,-0.89476 2.17111,-1.34214 3.30305,-1.34214s2.40306,0.43805 3.30305,1.34214zm-4.97314,5.50837c0.41752,0.41942 0.95566,0.66175 1.67009,0.66175c0.81648,0 1.33606,-0.3169 1.67009,-0.66175c0.36186,-0.35417 0.64019,-0.87612 0.64019,-1.64039c0,-0.6431 -0.22267,-1.17437 -0.64019,-1.59379s-0.95566,-0.66175 -1.67009,-0.66175s-1.25257,0.24234 -1.67009,0.66175c-0.41752,0.41942 -0.64019,0.96 -0.64019,1.61244s0.22267,1.20234 0.64019,1.62176l0,-0.00001l0,-0.00001z" class="cls-1" id="svg_18" stroke="null"/>
      <path fill="#ffffff" d="m200.9201,15.46946l0,2.87069l-1.07628,0c0.64019,0.43805 1.37318,1.23961 1.37318,2.81476c0,1.31418 -0.41752,2.27418 -1.21545,3.0571c-0.91854,0.92273 -2.18966,1.39807 -3.55357,1.39807c-1.46596,0 -2.68141,-0.54059 -3.49789,-1.39807c-0.73298,-0.78292 -1.19689,-1.87341 -1.19689,-3.09437c0,-0.97864 0.31546,-2.05981 1.28968,-2.77749l-6.61539,0l0,-2.87069l14.49261,0zm-6.10508,6.48701c0.39896,0.41942 0.97422,0.69903 1.68864,0.69903c0.65876,0 1.234,-0.27961 1.63297,-0.69903c0.41752,-0.43805 0.61236,-0.99729 0.61236,-1.50059c0,-0.54059 -0.22267,-1.17437 -0.65876,-1.64039c-0.31546,-0.33554 -0.8536,-0.66175 -1.58658,-0.66175s-1.27112,0.29825 -1.63297,0.6431c-0.47319,0.4567 -0.65876,0.99729 -0.65876,1.62176c0,0.57786 0.15773,1.08117 0.59381,1.53787l0.00928,0l0.00001,0z" class="cls-1" id="svg_19" stroke="null"/>
      <path fill="#ffffff" d="m197.61705,11.49896c0,-1.01593 0.79793,-1.81749 1.80925,-1.81749s1.80925,0.80156 1.80925,1.81749s-0.79793,1.81749 -1.80925,1.81749s-1.80925,-0.80156 -1.80925,-1.81749z" class="cls-1" id="svg_20" stroke="null"/>
     </g>
    </g>
   </g>
  </g>
 </g>

</svg>